<svg version="1.1" viewBox="0.0 0.0 300.0 300.0" fill="none" stroke="none" stroke-linecap="square" stroke-miterlimit="10" xmlns:xlink="http://www.w3.org/1999/xlink" xmlns="http://www.w3.org/2000/svg"><clipPath id="p.0"><path d="m0 0l300.0 0l0 300.0l-300.0 0l0 -300.0z" clip-rule="nonzero"/></clipPath><g clip-path="url(#p.0)"><path fill="#000000" fill-opacity="0.0" d="m0 0l300.0 0l0 300.0l-300.0 0z" fill-rule="evenodd"/><path fill="#134f5c" d="m41.82677 196.8269l0 0c0 5.2469482 8.388653 9.500427 18.73658 9.500427c10.347927 0 18.736576 -4.253479 18.736576 -9.500427l0 0c0 -5.246933 8.388657 -9.500412 18.73658 -9.500412c10.347931 0 18.73658 4.253479 18.73658 9.500412l0 76.00339c0 -5.2469482 -8.388649 -9.500427 -18.73658 -9.500427c-10.347923 0 -18.73658 4.253479 -18.73658 9.500427c0 5.2469482 -8.388649 9.500427 -18.736576 9.500427c-10.347927 0 -18.73658 -4.253479 -18.73658 -9.500427z" fill-rule="evenodd"/><path fill="#134f5c" d="m116.77315 195.50897l0 0c0 5.246933 8.285416 9.500412 18.505997 9.500412c10.220581 0 18.505997 -4.253479 18.505997 -9.500412l0 0c0 -5.2469482 8.285416 -9.500427 18.505997 -9.500427c10.220581 0 18.505997 4.253479 18.505997 9.500427l0 76.00339c0 -5.2469482 -8.285416 -9.500427 -18.505997 -9.500427c-10.220581 0 -18.505997 4.253479 -18.505997 9.500427c0 5.2469177 -8.285416 9.500397 -18.505997 9.500397c-10.220581 0 -18.505997 -4.253479 -18.505997 -9.500397z" fill-rule="evenodd"/><path fill="#134f5c" d="m190.79637 195.5083l0 0c0 5.246933 7.5414124 9.500412 16.844208 9.500412c9.302811 0 16.844223 -4.253479 16.844223 -9.500412l0 0c0 -5.2469482 7.5414124 -9.500427 16.844208 -9.500427c9.302811 0 16.844208 4.253479 16.844208 9.500427l0 76.00339c0 -5.2469482 -7.541397 -9.500427 -16.844208 -9.500427c-9.302795 0 -16.844208 4.253479 -16.844208 9.500427c0 5.2469177 -7.5414124 9.500397 -16.844223 9.500397c-9.302795 0 -16.844208 -4.253479 -16.844208 -9.500397z" fill-rule="evenodd"/><path fill="#134f5c" d="m41.82677 248.22047l0 -110.755905l0 0c0 -61.1688 48.430805 -110.755905 108.17323 -110.755905c59.74243 0 108.17322 49.587105 108.17322 110.755905l0 110.755905z" fill-rule="evenodd"/><path fill="#8e7cc3" d="m75.46951 183.52759l0 0c0 -23.848267 16.68885 -43.181107 37.27559 -43.181107q18.637802 0 37.27559 0q0 21.59056 0 43.181107l0 0c0 23.848267 -16.688843 43.181107 -37.27559 43.181107l0 0c-20.586739 0 -37.27559 -19.33284 -37.27559 -43.181107z" fill-rule="evenodd"/><path stroke="#ffffff" stroke-width="8.0" stroke-linejoin="round" stroke-linecap="butt" d="m75.46951 183.52759l0 0c0 -23.848267 16.68885 -43.181107 37.27559 -43.181107q18.637802 0 37.27559 0q0 21.59056 0 43.181107l0 0c0 23.848267 -16.688843 43.181107 -37.27559 43.181107l0 0c-20.586739 0 -37.27559 -19.33284 -37.27559 -43.181107z" fill-rule="evenodd"/><path fill="#3d85c6" d="m224.53114 99.80259l0 0c0 23.848259 -16.688858 43.1811 -37.27559 43.1811q-18.637802 0 -37.27559 0q0 -21.590553 0 -43.1811l0 0c0 -23.848267 16.688843 -43.181103 37.27559 -43.181103l0 0c20.586731 0 37.27559 19.332836 37.27559 43.181103z" fill-rule="evenodd"/><path stroke="#ffffff" stroke-width="8.0" stroke-linejoin="round" stroke-linecap="butt" d="m224.53114 99.80259l0 0c0 23.848259 -16.688858 43.1811 -37.27559 43.1811q-18.637802 0 -37.27559 0q0 -21.590553 0 -43.1811l0 0c0 -23.848267 16.688843 -43.181103 37.27559 -43.181103l0 0c20.586731 0 37.27559 19.332836 37.27559 43.181103z" fill-rule="evenodd"/></g></svg>